<svg version="1.1" id="Layer_1" xmlns="http://www.w3.org/2000/svg" xmlns:xlink="http://www.w3.org/1999/xlink" x="0px" y="0px" viewBox="0 0 512 512" style="enable-background:new 0 0 512 512;" xml:space="preserve">
<style type="text/css">
	.st0{fill:#846549;}
</style>
<g>
<g>
<g id="XMLID_42_">
<g id="XMLID_69_">
<path class="st0" d="M330.8871,117.0215c-3.722,12.4408,1.392,28.5249,13.7171,34.622c2.5557,1.264,6.532-1.5059,4.449-4.3559
					c-3.1783-4.3466-7.7553-7.3789-10.7148-11.9707c-3.3914-5.2615-4.6331-11.0251-3.5059-17.2086
					C335.2978,115.5544,331.6541,114.4581,330.8871,117.0215L330.8871,117.0215z" id="id_441"></path>
</g>
<g id="XMLID_68_">
<path class="st0" d="M318.0055,125.6891c11.7292-16.2728,35.1565-15.9507,51.3474-8.3644
					c3.3593,1.5738,6.3826-3.3483,2.991-5.0145c-17.7851-8.7393-47.9921-10.2913-58.1116,11.1279
					C313.0241,125.9955,316.3423,127.9973,318.0055,125.6891L318.0055,125.6891z" id="id_442"></path>
</g>
<g id="XMLID_67_">
<path class="st0" d="M368.3973,114.1421c-2.5962,6.741-4.6558,13.5553-8.4398,19.7821
					c-4.2793,7.04-9.6978,10.7665-16.4958,15.0114c-2.6074,1.6284-0.9962,5.6009,2.0228,4.9443
					c16.0037-3.4809,25.0914-23.9394,27.8149-38.3871C373.9102,112.2525,369.5721,111.0925,368.3973,114.1421L368.3973,114.1421z" id="id_443"></path>
</g>
<g id="XMLID_66_">
<path class="st0" d="M341.1431,85.3515c8.85,4.668,19.2975,10.2466,23.8773,19.5397
					c6.8613,13.9207,3.7893,27.3347,4.9078,41.9882c0.1979,2.5967,4.4215,3.6327,4.905,0.6626
					c4.4503-27.3011-1.3607-58.3962-32.028-66.0852C340.5423,80.8894,338.9442,84.1916,341.1431,85.3515L341.1431,85.3515z" id="id_444"></path>
</g>
<g id="XMLID_65_">
<path class="st0" d="M308.935,145.5692c17.5476,11.6698,43.4171,12.3121,63.203,7.0433
					c2.6838-0.7145,2.1916-4.8739-0.6349-4.8522c-10.7624,0.0818-21.1684,1.8987-31.9742,0.863
					c-10.4254-0.9991-18.9247-4.7755-28.9087-7.0032C308.2242,141.0854,306.8753,144.1996,308.935,145.5692L308.935,145.5692z" id="id_445"></path>
</g>
<g id="XMLID_64_">
<path class="st0" d="M337.6759,89.5835c0.2342-0.1687,0.4679-0.3378,0.7015-0.5069c-0.9922-1.013-1.984-2.0267-2.9762-3.0397
					c-1.4338,3.0877-7.4442,6.8969-9.8189,9.5234c-3.6915,4.0811-7.4216,8.2929-10.414,12.9251
					c-6.3837,9.8849-12.3878,24.4039-7.7698,35.9277c1.2764,3.1845,6.1351,2.1213,5.2929-1.4087
					c-3.52-14.7466,5.0308-29.4037,14.2289-40.278c3.6589-4.3255,10.5023-9.4507,12.4913-14.9783
					c0.8116-2.2549-2.1284-3.3842-3.6575-2.1591c-0.3745,0.2883-0.7288,0.6003-1.062,0.9359
					C332.611,88.4332,335.5556,91.2052,337.6759,89.5835L337.6759,89.5835z" id="id_446"></path>
</g>
<g id="XMLID_63_">
<path class="st0" d="M297.4229,106.7295c21.9217-16.5371,55.293-25.8752,81.9424-18.4727
					c3.2212,0.8941,5.3569-3.818,2.3404-5.4855c-16.5717-9.1625-42.3872-2.4324-59.1424,3.0554
					c-9.1787,3.0064-24.4103,8.8875-29.6859,17.3176C290.9807,106.1752,294.964,108.5845,297.4229,106.7295L297.4229,106.7295z" id="id_447"></path>
</g>
<g id="XMLID_62_">
<path class="st0" d="M380.9123,86.1635c9.8242,32.7941-10.1384,70.301-38.2381,87.6326
					c-2.9034,1.7912-0.4452,5.9579,2.5858,4.5521c31.7927-14.7501,54.1313-60.7547,39.4083-93.7222
					C383.7172,82.4958,380.2526,83.9609,380.9123,86.1635L380.9123,86.1635z" id="id_448"></path>
</g>
<g id="XMLID_61_">
<path class="st0" d="M289.7132,107.6954c0.9532,14.1879,10.0049,27.0194,17.9177,38.3966
					c8.2057,11.7979,18.459,22.5235,30.2195,30.7928c2.2982,1.6157,5.1894-2.0148,3.0671-3.8892
					c-20.0056-17.672-39.995-39.2892-46.8249-65.8733C293.48,104.7382,289.5406,105.1227,289.7132,107.6954L289.7132,107.6954z" id="id_449"></path>
</g>
<g id="XMLID_60_">
<path class="st0" d="M332.9763,55.1949c-16.07,12.692-32.3657,28.1813-41.9928,46.5815
					c-3.3121,6.3311-5.7509,13.0999-7.1688,20.1046c-0.4976,2.4589-1.4565,6.4844-1.3005,9.103
					c0.2892,4.8706,2.4207,5.1008,0.924,5.4318c-10.5322,2.3271-14.5997-17.4033-15.2231-23.5811
					c-1.0777-10.696,0.2547-21.4328,3.7784-31.6028c8.847-25.5284,28.5392-37.3131,54.6355-28.2539
					c3.1581,1.0962,5.4424-4.0616,2.3404-5.4855c-69.8243-32.0524-85.8311,97.6591-43.659,95.5135
					c1.7874-0.0913,3.1884-1.4147,3.2421-3.2441c1.0502-36.0653,24.1141-56.7893,47.9332-80.9701
					C338.8057,56.4362,335.4641,53.2298,332.9763,55.1949L332.9763,55.1949z" id="id_450"></path>
</g>
<g id="XMLID_59_">
<path class="st0" d="M393.869,172.5826c-17.9508,5.3526-33.483,8.1993-51.6293,2.8544
					c-18.5771-5.471-47.708-16.3707-56.6226-35.6732c-0.9712-2.1039-4.1331-1.418-4.7138,0.5872
					c-10.1712,35.1284,12.7355,67.318,45.5685,78.6782c19.5154,6.7516,41.0964,5.4917,56.6386-9.2099
					c7.5635-7.1551,17.9028-21.4232,14.4423-32.6951c-0.9848-3.2085-5.7351-1.9409-5.0305,1.3392
					c2.0944,9.7574-7.9368,22.511-14.5144,28.2986c-18.2209,16.0323-44.3119,11.8913-63.9939,0.7284
					c-23.0378-13.0671-35.6177-39.829-28.1532-65.7741c-1.5718,0.1956-3.143,0.3917-4.7148,0.5873
					c8.6397,18.6245,34.6876,29.8937,52.8528,35.8113c22.1653,7.2212,38.6198,5.8195,60.9544-1.4609
					C397.5119,175.8202,396.4875,171.8024,393.869,172.5826L393.869,172.5826z" id="id_451"></path>
</g>
<g id="XMLID_58_">
<path class="st0" d="M416.4251,116.4275c6.9294-21.2557-1.0326-44.7946-19.3252-57.459
					c-14.7696-10.2251-51.7418-24.5596-64.7428-3.3913c-0.7161,1.1659-0.3945,3.179,0.9582,3.7899
					c19.4951,8.8037,44.2717,19.2422,55.83,38.4911c12.3919,20.6359,8.5688,51.2328,3.0899,73.1585
					c-0.5721,2.2874,1.4524,4.2892,3.7303,3.7633c21.8731-5.0478,41.8535-20.4491,45.4082-43.4917
					c2.6577-17.2297-1.4446-42.6918-21.1331-48.2631c-2.7766-0.7856-3.9701,3.536-1.1909,4.3217
					c18.1678,5.141,19.63,33.6798,15.6725,48.041c-4.9471,17.9518-22.9652,29.5023-40.3285,33.4878
					c1.2434,1.2541,2.4869,2.5092,3.7303,3.7633c5.6956-22.6778,8.778-50.4544-1.0708-72.615
					c-8.094-18.2124-32.7617-36.3434-51.5023-41.1876c-4.1853-1.0821-8.6218,1.258-6.9372-2.2746
					c1.4252-2.9904,7.4808-4.6835,10.1517-5.3646c15.9534-4.0695,37.0207,4.8684,49.0322,14.6108
					c14.4531,11.722,20.0095,31.7005,14.3924,49.4529C411.3357,117.9619,415.5515,119.1084,416.4251,116.4275L416.4251,116.4275z" id="id_452"></path>
</g>
<g id="XMLID_57_">
<path class="st0" d="M254.9974,115.3395c-12.217,19.6388-18.9029,43.2522-8.6412,65.266
					c8.3086,17.8231,25.4439,32.3205,46.0424,30.5099c3.838-0.3373,3.9408-5.8557-0.0014-6.0491
					c-19.3914-0.9503-34.5865-10.72-42.2006-28.8525c-8.5966-20.4723-0.6997-40.0215,8.2896-58.7932
					C259.5999,115.0958,256.3997,113.084,254.9974,115.3395L254.9974,115.3395z" id="id_453"></path>
</g>
<g id="XMLID_56_">
<path class="st0" d="M387.3347,216.92c13.8997,5.8133,29.5975-2.2361,40.2835-11.2622
					c11.757-9.9303,17.4633-25.4423,13.57-40.5157c-0.9634-3.7303-6.3338-2.1695-5.6999,1.517
					c4.4945,26.1385-20.3441,51.1729-47.0509,46.2585C385.7617,212.4247,384.8951,215.8999,387.3347,216.92L387.3347,216.92z" id="id_454"></path>
</g>
<g id="XMLID_55_">
<path class="st0" d="M296.0791,204.7458c6.6501,8.9653,16.7686,15.519,27.3058,18.8544
					c0.3929,0.1243,0.6735-0.7211,0.2979-0.8837c-5.6056-2.4336-10.7525-5.0841-15.6747-8.6986
					c-4.0628-2.9835-7.6239-6.6354-11.7465-9.5055C296.1633,204.4441,296.0173,204.6631,296.0791,204.7458L296.0791,204.7458z" id="id_455"></path>
</g>
<g id="XMLID_54_">
<path class="st0" d="M379.8355,216.1375c2.5959,4.6701,13.7102,6.0344,18.4286,6.3372
					c8.1255,0.5223,15.5773-2.8119,22.132-7.3136c0.1613-0.1105,0.3286-0.7379-0.0198-0.6047
					c-4.7705,1.8232-9.1949,4.0615-14.2562,5.1184c-9.0159,1.8828-17.6882-0.6389-26.1523-3.728
					C379.8864,215.9167,379.8005,216.0743,379.8355,216.1375L379.8355,216.1375z" id="id_456"></path>
</g>
<g id="XMLID_53_">
<path class="st0" d="M437.3234,145.0958c1.6187,5.1413,3.508,9.6888,4.4583,15.0711c0.8429,4.7706,1.5071,9.2827,1.7389,14.1283
					c0.0347,0.7245,0.7128,0.146,0.7734-0.265c0.8389-5.625-0.6496-11.0308-1.5117-16.5628
					c-0.6815-4.3739-2.0503-9.3725-5.2653-12.5799C437.434,144.8045,437.301,145.024,437.3234,145.0958L437.3234,145.0958z" id="id_457"></path>
</g>
<g id="XMLID_52_">
<path class="st0" d="M413.4771,78.4331c6.2385,1.9363,12.3784,2.5755,17.5683,7.0903c4.8308,4.2029,6.9451,9.999,8.6404,15.9991
					c0.1464,0.517,0.6644-0.06,0.6307-0.3846c-1.3988-13.4025-13.7023-22.9632-26.7681-22.8901
					C413.4804,78.248,413.3883,78.4055,413.4771,78.4331L413.4771,78.4331z" id="id_458"></path>
</g>
<g id="XMLID_51_">
<path class="st0" d="M392.9691,119.0763c3.3729,8.7319,0.857,23.5155-0.8203,32.4221
					c-1.9541,10.3798-6.2458,18.7768-13.6499,26.2557c-0.9416,0.9507,0.5823,3.2522,1.6888,2.2141
					c7.7572-7.2793,11.9414-17.3674,13.7412-27.712c1.6771-9.6416,3.7702-24.1893-0.7302-33.3921
					C393.1368,118.7375,392.9304,118.9756,392.9691,119.0763L392.9691,119.0763z" id="id_459"></path>
</g>
<g id="XMLID_50_">
<path class="st0" d="M339.0994,121.3288c2.8745,0.7921,4.1096-3.6741,1.2303-4.467
					C337.4552,116.0697,336.2201,120.5359,339.0994,121.3288L339.0994,121.3288z" id="id_460"></path>
</g>
<g id="XMLID_49_">
<path class="st0" d="M342.573,130.4719c3.5092,0.9666,5.0167-4.485,1.5021-5.4528
					C340.5659,124.0525,339.0579,129.5036,342.573,130.4719L342.573,130.4719z" id="id_461"></path>
</g>
<g id="XMLID_48_">
<path class="st0" d="M336.6742,130.1325c3.4531,0.9505,4.937-4.4139,1.4783-5.3667
					C334.6999,123.8147,333.2156,129.1797,336.6742,130.1325L336.6742,130.1325z" id="id_462"></path>
</g>
<g id="XMLID_47_">
<path class="st0" d="M348.7052,140.2409c0.2062-0.0231,0.4118-0.0467,0.6185-0.0704c2.8108-0.3197,3.6802-3.4572,1.425-5.1744
					c-0.1653-0.1255-0.3301-0.2515-0.4954-0.377c-1.598-1.2173-3.9872,0.062-4.4647,1.7945
					C345.3097,138.1532,346.7141,140.4679,348.7052,140.2409L348.7052,140.2409z" id="id_463"></path>
</g>
<g id="XMLID_46_">
<path class="st0" d="M357.9937,128.3007c0.0638-0.0408,0.1274-0.0826,0.1906-0.1238c1.29-0.8376,1.7055-2.3245,1.0228-3.7127
					c-0.0336-0.0675-0.0668-0.1355-0.1-0.2036c-1.1661-2.3707-4.7817-1.692-5.4345,0.6765
					C353.0199,127.3064,355.7872,129.7352,357.9937,128.3007L357.9937,128.3007z" id="id_464"></path>
</g>
<g id="XMLID_45_">
<path class="st0" d="M349.9828,124.1132c4.6102,1.27,6.5912-5.8929,1.9734-7.1648
					C347.3466,115.6788,345.3651,122.8413,349.9828,124.1132L349.9828,124.1132z" id="id_465"></path>
</g>
<g id="XMLID_44_">
<path class="st0" d="M349.8663,131.7894c3.0796,0.8485,4.4026-3.9364,1.318-4.7867
					C348.1048,126.1552,346.7813,130.9396,349.8663,131.7894L349.8663,131.7894z" id="id_466"></path>
</g>
<g id="XMLID_43_">
<path class="st0" d="M362.8145,122.5563c0.0517-0.0157,0.1034-0.0314,0.1551-0.0472c2.7714-0.8512,2.9406-4.9469,0.0247-5.7506
					c-2.9142-0.8024-4.8756,2.7936-2.9239,4.952c0.0366,0.0402,0.0727,0.08,0.1093,0.1202
					C360.8035,122.5214,361.9249,122.83,362.8145,122.5563L362.8145,122.5563z" id="id_467"></path>
</g>
</g>
<g>
<path class="st0" d="M334.6038,222.7706c-30.4352,30.776-49.8293,73.6712-53.0643,116.7949
				c-1.7186,22.903,1.7107,45.8027,0.2262,68.6931c-1.9949,30.7693-16.4487,54.923-39.8393,74.4712
				c-2.3006,1.9227-0.0956,5.9317,2.7588,4.6037c43.4394-20.2031,50.5387-64.5805,48.6804-107.7511
				c-2.5023-58.1223,8.1741-107.9038,42.0801-156.0007C335.8118,223.0621,335.0879,222.2813,334.6038,222.7706L334.6038,222.7706z" id="id_468"></path>
</g>
<g>
<path class="st0" d="M369.8323,315.5593c-37.4276,13.1468-70.1341,43.808-78.4024,83.4957
				c-0.3307,1.5882,1.9972,1.9185,2.6113,0.6199c17.1281-36.2429,39.5727-65.3085,76.0947-83.4156
				C370.5797,316.0396,370.2938,315.3972,369.8323,315.5593L369.8323,315.5593z" id="id_469"></path>
</g>
<g>
<path class="st0" d="M307.0402,365.7133c-2.2855-23.9997,6.4034-47.2074,30.9109-56.0728
				c11.3084-4.0909,28.0718-6.4326,40.1258-6.9786c2.9164-2.4468,5.237-2.2701,6.9622,0.5295
				c-0.5361,5.4431-1.724,10.7545-3.564,15.9323c-2.9573,8.6293-7.4419,16.8217-13.1507,23.9409
				c-12.9155,16.1052-31.2257,24.5767-50.8211,29.5243c-1.257,0.3181-0.9931,2.0747,0.3075,1.9885
				c40.729-2.6977,68.0149-37.6454,70.5438-76.6584c0.0707-1.0893-1.013-1.9711-2.0594-1.5078
				c-22.4008,9.9257-48.2131,3.6298-67.0779,22.0281c-12.7769,12.4611-17.7418,30.3177-12.6399,47.4073
				C306.6604,366.1236,307.0648,365.9724,307.0402,365.7133L307.0402,365.7133z" id="id_470"></path>
</g>
<g>
<path class="st0" d="M345.74,312.1226c-3.1075,11.6211-11.4987,18.9103-17.4895,28.8329
				c-0.387,0.6408,0.3438,1.4695,0.9908,0.954c8.9733-7.1452,15.4529-18.3197,17.3692-29.5807
				C346.6951,311.8326,345.8733,311.6247,345.74,312.1226L345.74,312.1226z" id="id_471"></path>
</g>
<g>
<path class="st0" d="M344.5851,331.3947c9.6417-2.2193,18.3531-0.8412,27.9292,0.5924c0.6543,0.0978,0.7961-0.8154,0.2539-1.0712
				c-8.6738-4.1014-19.5137-3.0406-28.3936-0.2484C343.9638,330.7969,344.1641,331.4917,344.5851,331.3947L344.5851,331.3947z" id="id_472"></path>
</g>
<g>
<path class="st0" d="M323.1382,325.9752c-0.6908,12.3664-5.2019,22.3937-10.101,33.5021
				c-0.403,0.9138,0.8654,1.4496,1.4507,0.788c8.133-9.2024,10.3118-22.4158,9.4072-34.3092
				C323.862,325.5256,323.1622,325.5436,323.1382,325.9752L323.1382,325.9752z" id="id_473"></path>
</g>
<g>
<path class="st0" d="M313.7923,359.0105c13.9081-7.3893,28.0035-8.4808,43.4146-6.9341c0.7796,0.0779,1.0588-1.056,0.3181-1.3394
				c-14.6088-5.5851-31.8042-1.3411-43.9093,7.9781C313.4637,358.8325,313.6155,359.1044,313.7923,359.0105L313.7923,359.0105z" id="id_474"></path>
</g>
</g>
<g>
<g id="XMLID_14_">
<g id="XMLID_41_">
<path class="st0" d="M152.0818,247.093c4.4559,9.1917,15.9736,15.7976,26.3602,12.7791
					c2.1537-0.6258,2.9866-4.3463,0.2634-4.8901c-4.1532-0.8309-8.4192-0.1553-12.5766-1.2438
					c-4.7634-1.2474-8.5486-3.9285-11.1822-8.1129C153.8582,243.8972,151.1631,245.199,152.0818,247.093L152.0818,247.093z" id="id_475"></path>
</g>
<g id="XMLID_40_">
<path class="st0" d="M149.2221,258.9669c-1.8526-15.6704,11.9009-27.9398,25.3217-32.1502
					c2.7844-0.8739,1.9199-5.3344-0.9321-4.4975c-14.9575,4.3897-33.2957,19.5505-27.7744,37.3489
					C146.4964,261.7935,149.4843,261.1892,149.2221,258.9669L149.2221,258.9669z" id="id_476"></path>
</g>
<g id="XMLID_39_">
<path class="st0" d="M172.2975,225.4802c2.0791,5.2882,4.5078,10.3342,5.6246,15.9562
					c1.2623,6.3562,0.1022,11.3979-1.5819,17.4737c-0.6458,2.3307,2.4004,3.7762,3.8015,1.7904
					c7.4277-10.5267,1.8186-27.2199-4.284-37.0441C174.4892,221.4537,171.3574,223.0874,172.2975,225.4802L172.2975,225.4802z" id="id_477"></path>
</g>
<g id="XMLID_38_">
<path class="st0" d="M141.1891,223.2789c7.6124-1.9988,16.6354-4.3193,24.2319-1.3673
					c11.3796,4.4227,16.7306,13.8332,25.1698,21.7342c1.4959,1.4006,4.4951-0.2446,3.1962-2.2241
					c-11.9354-18.1937-31.8379-33.1322-53.7048-21.2845C138.4683,221.011,139.2968,223.7756,141.1891,223.2789L141.1891,223.2789z" id="id_478"></path>
</g>
<g id="XMLID_37_">
<path class="st0" d="M154.5332,275.316c16.3784-2.5646,31.717-15.9467,40.3872-29.5217
					c1.1762-1.8406-1.3208-3.991-2.9482-2.4755c-6.1958,5.7699-11.2633,12.356-18.078,17.5004
					c-6.5755,4.9642-13.5105,7.2938-20.4836,11.3106C151.737,273.0938,152.6102,275.6169,154.5332,275.316L154.5332,275.316z" id="id_479"></path>
</g>
<g id="XMLID_36_">
<path class="st0" d="M141.4288,227.5758c0.0456-0.222,0.0916-0.4446,0.1371-0.6665c-1.1139-0.0602-2.2283-0.1199-3.3416-0.1796
					c0.8105,2.5514-0.6485,7.9563-0.6297,10.7415c0.0307,4.3287,0.1068,8.7539,0.8356,13.0303
					c1.5538,9.125,5.7925,20.7353,14.5972,24.9603c2.4332,1.1681,4.6847-2.0316,2.3195-3.6302
					c-9.881-6.6781-12.7165-19.7218-13.1657-30.9166c-0.1784-4.4538,1.0638-11.0638-0.722-15.3257
					c-0.7287-1.7388-3.0334-0.8299-3.2686,0.6926c-0.0635,0.366-0.1028,0.7355-0.1179,1.1074
					C137.8809,229.6022,141.062,229.6438,141.4288,227.5758L141.4288,227.5758z" id="id_480"></path>
</g>
<g id="XMLID_35_">
<path class="st0" d="M127.2078,258.9186c3.9169-21.2435,18.2992-44.3996,37.6852-54.2781
					c2.3437-1.1938,1.0761-5.0612-1.5595-4.4247c-14.4792,3.4998-25.868,21.1271-32.6637,33.2175
					c-3.7232,6.623-9.4265,18.1311-8.0034,25.8238C123.1781,262.0226,126.7686,261.3015,127.2078,258.9186L127.2078,258.9186z" id="id_481"></path>
</g>
<g id="XMLID_34_">
<path class="st0" d="M164.6772,202.6048c23.132,13.7897,31.5001,46.1481,24.4243,71.1367
					c-0.7306,2.582,2.9099,3.6912,3.9197,1.2645c10.5898-25.4552-0.9191-64.0041-26.9835-75.2899
					C164.3534,198.9875,163.1232,201.6787,164.6772,202.6048L164.6772,202.6048z" id="id_482"></path>
</g>
<g id="XMLID_33_">
<path class="st0" d="M123.2521,263.5777c8.0956,7.7191,20.1664,10.3452,30.8027,12.7344
					c11.0302,2.4767,22.6775,3.2437,33.8925,1.7852c2.1919-0.2853,1.937-3.9273-0.2896-3.8861
					c-20.9942,0.3914-44.077-1.5133-62.1717-13.2944C123.8638,259.8605,121.7841,262.1779,123.2521,263.5777L123.2521,263.5777z" id="id_483"></path>
</g>
<g id="XMLID_32_">
<path class="st0" d="M120.4201,210.1372c-2.5686,15.9031-3.7808,33.5474,0.4211,49.3335
					c1.4456,5.4315,3.6308,10.6528,6.533,15.4678c1.019,1.6898,2.6031,4.5335,4.0859,5.9691
					c2.7577,2.6699,4.1159,1.6697,3.4238,2.6576c-4.8687,6.9486-17.7173-2.3272-21.3632-5.5778
					c-6.3124-5.6279-11.2479-12.5609-14.6123-20.3313c-8.4442-19.5036-3.2931-36.806,16.653-45.429
					c2.4139-1.0434,0.9955-5.2487-1.5595-4.4247c-57.5239,18.542,2.163,102.2544,25.4714,78.588
					c0.9881-1.0033,1.0971-2.5155,0.155-3.6043c-18.5668-21.4676-16.2145-45.7459-15.2614-72.4289
					C124.4598,207.7574,120.8173,207.6753,120.4201,210.1372L120.4201,210.1372z" id="id_484"></path>
</g>
<g id="XMLID_31_">
<path class="st0" d="M218.1371,245.8185c-7.5612,12.6469-15.0529,22.5562-28.4146,29.1053
					c-13.6792,6.7059-36.3635,15.875-51.7949,9.4232c-1.6819-0.7028-3.1501,1.3757-2.4211,2.847
					c12.7808,25.7741,43.176,32.2567,68.2513,21.3865c14.9041-6.4619,26.7464-18.6671,27.9402-35.4535
					c0.5809-8.1701-1.0112-21.9391-9.0108-26.6344c-2.2762-1.3361-4.3566,1.9237-2.2044,3.4511
					c6.4024,4.5428,7.3675,17.2707,6.6313,24.1236c-2.0393,18.9825-19.3676,30.4542-36.7137,34.4468
					c-20.3043,4.6732-41.8265-4.1531-51.2936-23.1645c-0.8068,0.9495-1.6141,1.8986-2.421,2.847
					c14.9113,6.2049,36.0043-1.1115,49.6823-7.3388c16.6897-7.5983,25.4841-17.1601,34.562-33.2553
					C221.9705,245.7582,219.24,243.9743,218.1371,245.8185L218.1371,245.8185z" id="id_485"></path>
</g>
<g id="XMLID_30_">
<path class="st0" d="M201.3575,201.2688c-7.2845-16.0073-24.4157-25.4213-41.7549-23.037
					c-13.999,1.9246-43.0556,13.2717-39.3379,32.4568c0.2045,1.056,1.4607,2.0524,2.5701,1.6871
					c15.9836-5.2608,35.898-12.3819,52.8333-7.3684c18.1561,5.3752,32.2077,25.1468,40.6887,40.7721
					c0.8851,1.6301,3.1227,1.714,4.164,0.1978c9.9973-14.556,13.3929-34.108,3.2015-49.357
					c-7.6193-11.4025-23.5362-23.9837-37.9129-16.7446c-2.0273,1.0202-0.4216,4.16,1.6075,3.1385
					c13.2665-6.6787,29.2879,9.0888,34.6291,19.5189c6.6769,13.0384,2.3718,29.3147-5.5756,40.8573
					c1.3881,0.0663,2.7755,0.1321,4.1636,0.1984c-8.7554-16.1762-21.7375-33.9183-39.2296-41.5297
					c-14.3759-6.2557-38.3166-3.652-51.7583,3.5038c-3.0013,1.5981-4.3293,5.3132-5.2308,2.3702
					c-0.7637-2.4922,1.8469-6.6932,3.0327-8.508c7.0862-10.842,24.0519-16.8613,36.1958-17.5995
					c14.6118-0.8884,28.4557,7.7402,34.6379,21.019C199.2224,204.8643,202.2759,203.2875,201.3575,201.2688L201.3575,201.2688z" id="id_486"></path>
</g>
<g id="XMLID_29_">
<path class="st0" d="M107.1889,286.4674c3.3595,17.8817,12.0379,35.1265,29.6916,42.433
					c14.2934,5.9159,31.936,5.2098,42.9155-6.7914c2.0454-2.2364-0.829-5.4908-3.217-3.5071
					c-11.7477,9.7603-25.7519,12.1748-39.807,5.7102c-15.869-7.298-21.6852-22.8302-26.4537-38.4936
					C109.7284,283.8794,106.8033,284.4137,107.1889,286.4674L107.1889,286.4674z" id="id_487"></path>
</g>
<g id="XMLID_28_">
<path class="st0" d="M237.9227,274.998c11.1487-4.0203,15.9703-17.0337,17.3665-27.9479
					c1.5364-12.008-3.4029-24.0357-13.6746-30.7044c-2.5417-1.6502-4.8253,2.109-2.4974,3.9098
					c16.503,12.7648,15.4133,40.4843-2.6837,51.8352C234.6207,273.2278,235.9659,275.7037,237.9227,274.998L237.9227,274.998z" id="id_488"></path>
</g>
<g id="XMLID_27_">
<path class="st0" d="M178.5431,316.4596c8.6227,1.6614,17.9725,0.0811,25.856-3.588c0.2934-0.1361,0.0063-0.7757-0.2975-0.6705
					c-4.5438,1.5696-8.9375,2.7697-13.713,3.2911c-3.9411,0.4306-7.9478,0.2068-11.8635,0.7345
					C178.4318,316.2397,178.4634,316.4441,178.5431,316.4596L178.5431,316.4596z" id="id_489"></path>
</g>
<g id="XMLID_26_">
<path class="st0" d="M233.1583,278.5311c3.9887,1.3275,11.1578-3.7913,14.0538-6.1237
					c4.9883-4.0182,7.5361-9.9126,8.9424-16.0078c0.035-0.1502-0.2015-0.6028-0.333-0.3402
					c-1.7959,3.5931-3.1711,7.2433-5.5436,10.5473c-4.2259,5.8853-10.594,9.0345-17.144,11.7432
					C233.0709,278.3761,233.1045,278.5132,233.1583,278.5311L233.1583,278.5311z" id="id_490"></path>
</g>
<g id="XMLID_25_">
<path class="st0" d="M228.7162,206.7782c3.6716,2.1203,7.1848,3.7523,10.5972,6.3668c3.0255,2.3187,5.8093,4.5809,8.5205,7.2668
					c0.4049,0.4018,0.4901-0.2938,0.3074-0.5651c-2.504-3.7065-6.2415-6.0491-9.6831-8.7983
					c-2.7205-2.1731-6.1721-4.3439-9.7411-4.4936C228.6248,206.5505,228.6647,206.7485,228.7162,206.7782L228.7162,206.7782z" id="id_491"></path>
</g>
<g id="XMLID_24_">
<path class="st0" d="M179.4466,180.8089c4.6467-2.1943,8.546-5.0885,13.9549-5.23c5.0361-0.1324,9.3432,2.1041,13.5164,4.6809
					c0.3602,0.2227,0.3535-0.3876,0.1611-0.5579c-7.9375-7.0266-20.1534-6.0277-27.6894,0.9617
					C179.3509,180.6995,179.3809,180.8403,179.4466,180.8089L179.4466,180.8089z" id="id_492"></path>
</g>
<g id="XMLID_23_">
<path class="st0" d="M189.1666,215.2758c6.5986,3.2687,12.9999,13.1776,16.763,19.2327
					c4.3862,7.0577,6.3623,14.2071,6.0463,22.4801c-0.0405,1.0516,2.0664,1.5763,2.156,0.3857
					c0.6276-8.3448-2.3105-16.4182-6.7678-23.3726c-4.1537-6.4813-10.6753-16.0283-18.1771-18.9707
					C189.0838,214.9902,189.0907,215.2381,189.1666,215.2758L189.1666,215.2758z" id="id_493"></path>
</g>
<g id="XMLID_22_">
<path class="st0" d="M159.1323,245.2239c2.0876-1.0697,0.4291-4.3152-1.6614-3.2441
					C155.3837,243.049,157.0418,246.2951,159.1323,245.2239L159.1323,245.2239z" id="id_494"></path>
</g>
<g id="XMLID_21_">
<path class="st0" d="M166.008,248.6776c2.5482-1.3048,0.5236-5.2675-2.0283-3.96
					C161.4311,246.023,163.4551,249.9852,166.008,248.6776L166.008,248.6776z" id="id_495"></path>
</g>
<g id="XMLID_20_">
<path class="st0" d="M162.4075,251.6173c2.5075-1.2846,0.5159-5.1838-1.9965-3.8974
					C157.9035,249.0045,159.8961,252.9036,162.4075,251.6173L162.4075,251.6173z" id="id_496"></path>
</g>
<g id="XMLID_19_">
<path class="st0" d="M174.7569,251.0813c0.1072-0.1233,0.2144-0.2466,0.3217-0.3698c1.4593-1.6797,0.2957-3.9611-1.9254-3.7579
					c-0.1626,0.0148-0.3247,0.0301-0.4874,0.045c-1.5741,0.1439-2.2784,2.1559-1.6344,3.414
					C171.6788,251.6759,173.7233,252.271,174.7569,251.0813L174.7569,251.0813z" id="id_497"></path>
</g>
<g id="XMLID_18_">
<path class="st0" d="M173.7938,239.2202c0.0148-0.0579,0.0301-0.1155,0.0448-0.1734c0.3023-1.1715-0.2476-2.2545-1.3813-2.6961
					c-0.0554-0.0218-0.1109-0.0437-0.1667-0.0649c-1.9358-0.7548-3.6714,1.561-2.7904,3.282
					C170.3817,241.288,173.277,241.2248,173.7938,239.2202L173.7938,239.2202z" id="id_498"></path>
</g>
<g id="XMLID_17_">
<path class="st0" d="M166.923,241.0512c3.3482-1.7146,0.6885-6.9208-2.6654-5.2032
					C160.91,237.563,163.5696,242.7692,166.923,241.0512L166.923,241.0512z" id="id_499"></path>
</g>
<g id="XMLID_16_">
<path class="st0" d="M170.9367,245.5639c2.2362-1.1458,0.4592-4.6235-1.7808-3.4761
					C166.9197,243.2336,168.6967,246.7113,170.9367,245.5639L170.9367,245.5639z" id="id_500"></path>
</g>
<g id="XMLID_15_">
<path class="st0" d="M173.5345,233.3269c0.0216-0.0368,0.0432-0.0737,0.0644-0.11c1.1545-1.9671-0.9256-4.432-3.0428-3.3474
					c-2.1163,1.0845-1.3419,4.2121,0.938,4.426c0.0423,0.0033,0.0847,0.0075,0.1265,0.0114
					C172.3503,234.3749,173.1642,233.9583,173.5345,233.3269L173.5345,233.3269z" id="id_501"></path>
</g>
</g>
</g>
<g>
<path class="st0" d="M284.6742,401.3569c1.688-20.9442-11.0349-40.7671-21.2453-58.0656
			c-11.6959-19.8147-28.0575-35.3554-39.6255-55.2033c-1.3843-2.3751-4.3318-2.3126-5.591,0.1306
			c-8.4065,16.3172,11.6551,30.9677,21.5235,41.241c19.274,20.064,41.7723,42.803,44.388,71.9114
			C284.1519,401.6861,284.6487,401.6685,284.6742,401.3569L284.6742,401.3569z" id="id_502"></path>
</g>
<g>
<g>
<path class="st0" d="M202.76,374.6188c16.7176,8.2157,31.2536,22.0037,44.226,35.0737
				c9.7229,9.7963,23.5577,22.2994,27.9978,35.809c0.4039,1.2288,2.084,0.5267,2.0229-0.585
				c-0.7748-14.117-16.8198-27.2964-26.1575-36.1714c-13.7495-13.0684-29.7921-27.9925-47.8963-34.635
				C202.6196,373.9874,202.4499,374.4667,202.76,374.6188L202.76,374.6188z" id="id_503"></path>
</g>
<g>
<path class="st0" d="M250.9474,413.7463c-20.5988,5.3389-37.7794,0.4287-45.7425-20.7467
				c-1.7475-4.6472-2.7263-9.437-5.1826-13.8184c-1.7637-3.1458-6.4702-6.4514-7.7207-9.4982
				c-2.0924-1.2677-2.5255-1.7455-1.2993-1.4326c5.2058-0.2385,10.3753,0.0384,15.5092,0.8311
				c9.8447,1.3704,19.6659,3.6985,26.9345,10.846c8.7509,8.6069,15.1554,21.0271,18.4508,32.7575
				c0.1499,0.533,0.9053,0.4378,0.8608-0.1331c-0.9955-12.6912-10.1757-27.8373-19.759-36.084
				c-12.1145-10.4249-32.373-10.8395-47.335-11.0717c-1.5651-0.0245-2.5291,1.9313-1.1401,2.9608
				c16.3452,12.1144,13.1972,35.3637,29.9499,46.0533c11.6545,7.4373,24.6723,4.7506,36.6989,0.1141
				C251.597,414.3603,251.4014,413.6287,250.9474,413.7463L250.9474,413.7463z" id="id_504"></path>
</g>
<g>
<path class="st0" d="M205.9314,388.7039c3.5635-1.3526,7.2628-1.87,11.0555-1.4029c3.159,0.3888,5.9283,2.0734,8.9928,2.4645
				c0.4469,0.0567,0.7991-0.5292,0.4825-0.8798c-2.2127-2.4521-6.704-3.0699-9.8424-3.1284
				c-3.826-0.0717-7.4703,0.7913-10.9059,2.4473C205.3974,388.3576,205.6037,388.8283,205.9314,388.7039L205.9314,388.7039z" id="id_505"></path>
</g>
<g>
<path class="st0" d="M214.3434,369.1694c-0.3184,6.0409,2.5996,14.0379,8.2636,16.9223c0.4241,0.2159,0.9617-0.3477,0.7275-0.762
				c-1.5204-2.6953-3.7031-4.9005-5.1866-7.6241c-1.4893-2.7341-2.4896-5.6396-3.44-8.5926
				C214.6487,368.9305,214.3533,368.9865,214.3434,369.1694L214.3434,369.1694z" id="id_506"></path>
</g>
<g>
<path class="st0" d="M221.5548,404.8639c8.6275-1.7511,15.6464-1.2881,23.7019,2.3152c0.5482,0.2451,1.2455-0.4292,0.9355-0.9802
				c-2.069-3.68-7.4937-4.2999-11.3705-4.4241c-4.5611-0.1457-9.2971,0.5279-13.432,2.5183
				C221.0942,404.4356,221.2085,404.9344,221.5548,404.8639L221.5548,404.8639z" id="id_507"></path>
</g>
<g>
<path class="st0" d="M232.3032,377.5981c-0.6524,7.891,1.346,19.5611,8.9411,23.7602c0.4604,0.2541,1.0281-0.2249,0.6738-0.6995
				c-2.7134-3.6303-5.1768-7.0705-6.5557-11.4577c-1.2024-3.8259-1.6433-7.8236-2.8508-11.6353
				C232.4781,377.4593,232.3115,377.4953,232.3032,377.5981L232.3032,377.5981z" id="id_508"></path>
</g>
</g>
</g>
</svg>