<?xml version="1.0" encoding="utf-8"?><svg xml:space="preserve" viewBox="0 0 100 100" y="0" x="0" xmlns="http://www.w3.org/2000/svg" id="圖層_1" version="1.1" width="200px" height="200px" xmlns:xlink="http://www.w3.org/1999/xlink" style="width:100%;height:100%;background-size:initial;background-repeat-y:initial;background-repeat-x:initial;background-position-y:initial;background-position-x:initial;background-origin:initial;background-image:initial;background-color:rgb(23, 18, 18);background-clip:initial;background-attachment:initial;animation-play-state:paused" ><g class="ldl-scale" style="transform-origin:50% 50%;transform:rotate(0deg) scale(0.8, 0.8);animation-play-state:paused" ><path stroke-miterlimit="10" stroke-linejoin="round" stroke-linecap="round" stroke-width="3.5" stroke="#333" fill="#e15b64" d="M56.172 82.307c-4.115-1.131-8.23-1.131-12.345 0-2.888.794-5.99.724-8.669-.615-6.565-3.283-9.41-11.579-4.715-18.064l8.561-11.824c5.35-7.39 16.343-7.438 21.759-.097l8.727 11.832c4.78 6.479 1.958 14.836-4.629 18.144-2.682 1.347-5.793 1.42-8.689.624z" style="stroke:rgb(51, 51, 51);fill:rgb(225, 91, 100);animation-play-state:paused" ></path>
<path stroke-miterlimit="10" stroke-linejoin="round" stroke-linecap="round" stroke-width="3.5" stroke="#333" fill="#e15b64" d="M46.696 28.451c.892 7.819-2.119 12.705-8.015 13.378S28.75 38.42 27.858 30.601c-.892-7.819 3.614-12.876 8.015-13.378s9.93 3.409 10.823 11.228z" style="stroke:rgb(51, 51, 51);fill:rgb(225, 91, 100);animation-play-state:paused" ></path>
<path stroke-miterlimit="10" stroke-linejoin="round" stroke-linecap="round" stroke-width="3.5" stroke="#333" fill="#e15b64" d="M26.288 44.147c4.044 5.721 3.785 10.824-.529 13.874-4.314 3.049-9.211 1.591-13.255-4.13s-2.692-11.597.529-13.874 9.211-1.591 13.255 4.13z" style="stroke:rgb(51, 51, 51);fill:rgb(225, 91, 100);animation-play-state:paused" ></path>
<path stroke-miterlimit="10" stroke-linejoin="round" stroke-linecap="round" stroke-width="3.5" stroke="#333" fill="#e15b64" d="M73.712 44.147c-4.044 5.721-3.785 10.824.529 13.874 4.314 3.049 9.211 1.591 13.255-4.13s2.692-11.597-.529-13.874-9.211-1.591-13.255 4.13z" style="stroke:rgb(51, 51, 51);fill:rgb(225, 91, 100);animation-play-state:paused" ></path>
<path stroke-miterlimit="10" stroke-linejoin="round" stroke-linecap="round" stroke-width="3.5" stroke="#333" fill="#e15b64" d="M53.304 28.451c-.892 7.819 2.119 12.705 8.015 13.378s9.931-3.409 10.823-11.228-3.614-12.876-8.015-13.378c-4.401-.502-9.93 3.409-10.823 11.228z" style="stroke:rgb(51, 51, 51);fill:rgb(225, 91, 100);animation-play-state:paused" ></path>
<metadata xmlns:d="https://loading.io/stock/" style="animation-play-state:paused" ><d:name style="animation-play-state:paused" >paw</d:name>


<d:tags style="animation-play-state:paused" >paw,cat,claw,nail,meow,trace,trail,footprint,animal</d:tags>


<d:license style="animation-play-state:paused" >by</d:license>


<d:slug style="animation-play-state:paused" >mf2cex</d:slug></metadata></g><!-- generated by https://loading.io/ --></svg>